<?xml version="1.0" encoding="UTF-8"?>
<svg id="Capa_1" data-name="Capa 1" xmlns="http://www.w3.org/2000/svg" xmlns:xlink="http://www.w3.org/1999/xlink" viewBox="0 0 200 200">
  <defs>
    <style>
      .cls-1 {
        fill: #1cb2e8;
      }

      .cls-2 {
        fill: #f9c74f;
      }

      .cls-3 {
        fill: url(#Degradado_sin_nombre_12);
      }
    </style>
    <linearGradient id="Degradado_sin_nombre_12" data-name="Degradado sin nombre 12" x1="17.33" y1="100" x2="116.11" y2="100" gradientUnits="userSpaceOnUse">
      <stop offset="0" stop-color="#f9c74f"/>
      <stop offset=".37" stop-color="#f7c650"/>
      <stop offset=".51" stop-color="#f0c654"/>
      <stop offset=".61" stop-color="#e4c55c"/>
      <stop offset=".68" stop-color="#d3c466"/>
      <stop offset=".75" stop-color="#bdc274"/>
      <stop offset=".81" stop-color="#a2c086"/>
      <stop offset=".86" stop-color="#81bd9a"/>
      <stop offset=".91" stop-color="#5cbab2"/>
      <stop offset=".96" stop-color="#32b7cd"/>
      <stop offset="1" stop-color="#05b4ea"/>
      <stop offset="1" stop-color="#01b4ed"/>
    </linearGradient>
  </defs>
  <path class="cls-1" d="M182.67,133.39c0,8.13-5.97,14.87-13.77,16.07h-.01c-.82.03-1.65.04-2.47.04s-1.65-.01-2.47-.04h-.01c-26.22-.78-49.36-13.77-63.93-33.49,9.73-13.17,15.64-29.33,16.08-46.85v-.02c.02-.71.03-1.42.03-2.13,0,.57.01,1.14.03,1.7.88,26.34,22.09,47.6,48.41,48.57.62.03,1.24.04,1.87.04h.1c2.57,0,5.15.51,7.43,1.7,5.19,2.71,8.73,8.15,8.73,14.4Z"/>
  <path class="cls-3" d="M116.1,66.34v-.02c0-.12,0-.24,0-.36,0-.19-.02-.38-.03-.57,0-.06,0-.12-.01-.19v-.02c-.01-.08-.02-.15-.03-.24-.03-.34-.07-.68-.12-1.02-.01-.08-.02-.15-.04-.24-.02-.08-.03-.15-.05-.23-.03-.17-.06-.34-.09-.51-.07-.33-.15-.66-.24-.98-.05-.17-.1-.33-.14-.49-.05-.13-.09-.27-.14-.41-.06-.17-.12-.33-.19-.5-.13-.33-.27-.66-.42-.98-.07-.16-.15-.32-.24-.48-.17-.32-.34-.63-.53-.93-.75-1.21-1.66-2.32-2.7-3.3-.11-.11-.23-.22-.36-.32-.12-.11-.25-.22-.38-.33-.29-.25-.59-.48-.91-.71-.12-.09-.24-.17-.36-.25-.14-.09-.27-.19-.41-.27-.02-.01-.04-.02-.06-.04-.13-.08-.26-.15-.39-.24-.02,0-.03-.02-.05-.03-.14-.09-.29-.17-.44-.25-.16-.09-.31-.17-.47-.25-.13-.07-.26-.13-.4-.2-.05-.02-.09-.04-.13-.06-.14-.06-.28-.12-.43-.19-.25-.11-.52-.21-.78-.31-.12-.04-.24-.09-.36-.12-.63-.21-1.27-.39-1.93-.52-.1-.03-.21-.05-.32-.06-.1-.02-.2-.04-.29-.05-.15-.03-.31-.05-.46-.07-.18-.03-.36-.05-.55-.07-.55-.05-1.1-.08-1.66-.08s-1.12.03-1.67.08c-.19.02-.37.04-.55.07-.25.04-.49.07-.73.12-.11.02-.23.04-.34.07-.18.04-.35.07-.53.11-.57.14-1.13.3-1.67.5-.13.05-.25.09-.38.14-.17.06-.33.13-.49.2-.17.07-.33.14-.49.21-.16.08-.32.15-.48.23-.32.16-.63.33-.92.51-.15.09-.3.18-.45.27-.14.09-.29.19-.44.29-.14.1-.28.2-.43.3-.14.1-.28.21-.42.32-.14.11-.27.22-.41.33-.13.11-.27.22-.4.34-.13.11-.26.23-.39.35-.12.12-.25.24-.37.37s-.24.25-.36.38c-.12.12-.24.25-.35.39-.11.13-.23.26-.34.4-.11.13-.22.27-.33.41-.1.13-.2.26-.3.4-.31.43-.6.88-.87,1.34-.1.17-.19.34-.28.51-.08.15-.16.32-.24.48-.22.45-.41.91-.57,1.38-.07.2-.14.4-.2.6-.06.18-.11.35-.15.53-.14.53-.26,1.06-.35,1.61,0,.01,0,.02,0,.03-.01.07-.02.14-.03.21-.04.24-.07.48-.09.72,0,.04-.01.08-.02.12-.04.38-.06.76-.08,1.15,0,.12,0,.24,0,.36,0,.13,0,.27,0,.41v.25c0,.57-.01,1.14-.03,1.7-.88,26.34-22.09,47.6-48.41,48.57-.62.03-1.25.04-1.87.04h-.1c-2.58,0-5.15.51-7.43,1.7-5.19,2.71-8.73,8.15-8.73,14.4,0,8.13,5.97,14.87,13.77,16.07h.01c.82.03,1.65.04,2.47.04s1.65-.01,2.47-.04h.01c26.22-.78,49.36-13.77,63.93-33.49,9.73-13.17,15.64-29.33,16.08-46.85v-.02c.02-.71.03-1.42.03-2.13v-.22c0-.14,0-.28,0-.41Z"/>
  <path class="cls-1" d="M189.88,79.95c1.46,14.62-10.73,26.8-25.35,25.35-10.81-1.07-19.55-9.82-20.62-20.63-1.44-14.6,10.73-26.78,25.33-25.34,10.81,1.07,19.56,9.8,20.64,20.61Z"/>
  <path class="cls-2" d="M10.12,79.95c-1.46,14.62,10.73,26.8,25.35,25.35,10.81-1.07,19.55-9.82,20.62-20.63,1.44-14.6-10.73-26.78-25.33-25.34-10.81,1.07-19.56,9.8-20.64,20.61Z"/>
</svg>