<?xml version="1.0" encoding="UTF-8"?>
<svg id="Capa_1" data-name="Capa 1" xmlns="http://www.w3.org/2000/svg" xmlns:xlink="http://www.w3.org/1999/xlink" viewBox="0 0 200 200">
  <defs>
    <style>
      .cls-1 {
        fill: url(#Degradado_sin_nombre_34);
      }

      .cls-2 {
        fill: #fff;
      }

      .cls-3 {
        fill: #1cb2e8;
      }

      .cls-4 {
        fill: #f9c74f;
      }
    </style>
    <linearGradient id="Degradado_sin_nombre_34" data-name="Degradado sin nombre 34" x1="67.53" y1="131.97" x2="161.42" y2="38.08" gradientUnits="userSpaceOnUse">
      <stop offset="0" stop-color="#f9c74f"/>
      <stop offset="1" stop-color="#01b4ed"/>
    </linearGradient>
  </defs>
  <path class="cls-3" d="M109.82,184.09c-5.24,2.81-15.95,4.36-19.86-1.34-2.98-4.33,1.91-7.58,3.73-11.25,2.39-4.81,1.84-11.85-1.34-16.28,1.79.48,3.75.35,5.52-.47,5.02-2.33,11.09-5.4,17.74-9.34,6.48-3.82,14.14-8.35,22.11-14.4.08.53.11,1.05.15,1.52,1.78,19.69-10.65,42.21-28.06,51.55Z"/>
  <path class="cls-3" d="M68.45,61.81c-6.03,7.97-10.56,15.6-14.38,22.07-3.93,6.65-7,12.73-9.33,17.75-.83,1.76-.96,3.72-.47,5.52-4.5-3.17-11.82-3.64-16.59-1.13-3.52,1.87-6.65,6.48-10.91,3.55-5.69-3.9-4.03-14.62-1.34-19.84,8.89-17.25,32.27-29.92,51.55-28.07.45.05.95.08,1.46.15Z"/>
  <path class="cls-3" d="M140.27,13.83c17.72-4.35,33.1-3.97,43.61-2.79,2.41.27,4.3,2.16,4.57,4.57,1.18,10.51,1.56,25.9-2.79,43.61-.16.64-.37,1.48-.64,2.47l-47.22-47.22c.98-.27,1.83-.48,2.47-.64Z"/>
  <path class="cls-1" d="M185.02,61.69c-.17.62-.35,1.26-.56,1.99-2.53,8.71-8.6,25.63-21.93,42.9-8,10.36-16.58,18.22-24.81,24.45-7.97,6.05-15.63,10.58-22.11,14.4-6.65,3.94-12.71,7.01-17.74,9.34-1.78.81-3.73.95-5.52.47-1.35-.35-2.63-1.07-3.67-2.11l-42.3-42.3c-1.04-1.04-1.76-2.32-2.11-3.67-.5-1.81-.36-3.76.47-5.52,2.33-5.02,5.4-11.1,9.33-17.75,3.82-6.47,8.35-14.1,14.38-22.07,6.23-8.24,14.1-16.83,24.48-24.85,17.25-13.33,34.18-19.39,42.9-21.93.72-.21,1.37-.39,1.97-.56l47.22,47.22Z"/>
  <rect class="cls-3" x="42.51" y="104.3" width="73.2" height="32.17" rx="16.09" ry="16.09" transform="translate(-61.95 91.2) rotate(-45)"/>
  <rect class="cls-2" x="114.82" y="44.46" width="40.22" height="40.22" rx="20.11" ry="20.11" transform="translate(-6.14 114.32) rotate(-45)"/>
  <rect class="cls-4" x="40.19" y="171.58" width="24.13" height="10.66" rx="5.33" ry="5.33" transform="translate(-109.79 88.77) rotate(-45)"/>
  <rect class="cls-4" x="10.52" y="141.91" width="24.13" height="10.66" rx="5.33" ry="5.33" transform="translate(-97.5 59.09) rotate(-45)"/>
  <rect class="cls-4" x="4.84" y="165.35" width="48.26" height="10.66" rx="5.33" ry="5.33" transform="translate(-112.21 70.47) rotate(-45)"/>
</svg>